<svg xmlns="http://www.w3.org/2000/svg" viewBox="0 0 320 320" role="img" aria-labelledby="title desc">
  <title id="title">Keyboard grid cover</title>
  <desc id="desc">A dark abstract keyboard-inspired composition with terminal lighting.</desc>
  <defs>
    <linearGradient id="bg" x1="0" x2="1" y1="0" y2="1">
      <stop offset="0%" stop-color="#111221"/>
      <stop offset="100%" stop-color="#070814"/>
    </linearGradient>
    <linearGradient id="glow" x1="0" x2="1" y1="0" y2="1">
      <stop offset="0%" stop-color="#cba6f7" stop-opacity=".32"/>
      <stop offset="100%" stop-color="#89b4fa" stop-opacity=".05"/>
    </linearGradient>
  </defs>
  <rect width="320" height="320" fill="url(#bg)"/>
  <rect width="320" height="320" fill="url(#glow)"/>
  <g transform="translate(42 54) rotate(-8 118 102)">
    <rect x="0" y="0" width="190" height="146" rx="12" fill="#0c0d18" stroke="#2b2c3f" stroke-width="1"/>
    <g fill="#1f2131">
      <rect x="16" y="18" width="24" height="18" rx="3"/>
      <rect x="46" y="18" width="24" height="18" rx="3"/>
      <rect x="76" y="18" width="24" height="18" rx="3"/>
      <rect x="106" y="18" width="24" height="18" rx="3"/>
      <rect x="136" y="18" width="24" height="18" rx="3"/>
      <rect x="16" y="44" width="22" height="18" rx="3"/>
      <rect x="42" y="44" width="22" height="18" rx="3"/>
      <rect x="68" y="44" width="22" height="18" rx="3"/>
      <rect x="94" y="44" width="22" height="18" rx="3"/>
      <rect x="120" y="44" width="22" height="18" rx="3"/>
      <rect x="146" y="44" width="22" height="18" rx="3"/>
      <rect x="16" y="70" width="26" height="18" rx="3"/>
      <rect x="46" y="70" width="26" height="18" rx="3"/>
      <rect x="76" y="70" width="26" height="18" rx="3"/>
      <rect x="106" y="70" width="26" height="18" rx="3"/>
      <rect x="136" y="70" width="26" height="18" rx="3"/>
      <rect x="16" y="96" width="30" height="18" rx="3"/>
      <rect x="50" y="96" width="30" height="18" rx="3"/>
      <rect x="84" y="96" width="30" height="18" rx="3"/>
      <rect x="118" y="96" width="30" height="18" rx="3"/>
      <rect x="16" y="122" width="104" height="16" rx="4"/>
      <rect x="126" y="122" width="36" height="16" rx="4"/>
    </g>
    <rect x="128" y="102" width="36" height="12" rx="4" fill="#89b4fa" fill-opacity=".18"/>
    <rect x="18" y="20" width="148" height="2" fill="#cba6f7" fill-opacity=".18"/>
  </g>
  <circle cx="248" cy="92" r="64" fill="#15182a" fill-opacity=".82"/>
  <circle cx="248" cy="92" r="46" fill="#101223"/>
  <path d="M208 108c18-28 42-48 74-58" stroke="#89b4fa" stroke-opacity=".34" stroke-width="2" fill="none"/>
</svg>
